<?xml version="1.0" encoding="UTF-8"?>
<svg id="Layer_1" data-name="Layer 1" xmlns="http://www.w3.org/2000/svg" viewBox="0 0 1692.35 641.72">
  <defs>
    <style>
      .cls-1 {
        fill: #ee4869;
      }
    </style>
  </defs>
  <path class="cls-1" d="M491.53,163.31c-1.9-2.26-4.7-3.57-7.66-3.57h-103.3c-4.86,0-9.02,3.49-9.85,8.28l-14.53,83.19c-18.99-67.52-67.96-103.71-141.1-102.95-.58,0-1.15,0-1.73,0-51.29,0-96.97,20.77-132.21,60.13-35.77,39.95-60.31,97.17-72.94,170.05-17.45,98.86-6.98,174.59,30.28,219,24.66,29.4,59.62,44.3,103.91,44.3s80.97-14.3,114.63-42.51c17.41-14.59,33.28-32.95,47.09-54.33l-12.79,72.67c-.51,2.91.29,5.9,2.19,8.16s4.7,3.57,7.66,3.57h103.3c4.85,0,9-3.48,9.85-8.26l79.39-449.55c.51-2.91-.29-5.9-2.19-8.17ZM202.66,529.9c-29.61,0-50.44-7.7-63.67-23.53-18.1-21.67-22.33-59.99-12.56-113.99,7.73-45.01,21.91-78.71,42.14-100.17,19.78-20.98,45.64-31.17,79.05-31.17,29.65,0,53.47,9.31,68.9,26.94,16.75,19.14,23.25,47.16,18.78,81.04l-6.64,35.12c-.01.07-.03.14-.04.22l-3.76,22.54c-16.26,63.55-63.06,103.01-122.2,103.01Z"/>
  <path class="cls-1" d="M811.4,401.49l174.74-214.93c1.06-1.31,1.78-2.86,2.08-4.52l1.91-10.52c.53-2.92-.26-5.92-2.16-8.2s-4.71-3.59-7.68-3.59h-113.82c-3.26,0-6.32,1.59-8.19,4.26l-126.72,180.77-69.06-178.63c-1.49-3.85-5.2-6.39-9.33-6.39h-110.95c-4.83,0-8.97,3.46-9.84,8.21l-1.91,10.52c-.4,2.18-.06,4.44.97,6.41l104.07,199.78-179.44,217.75c-1.09,1.32-1.82,2.89-2.12,4.57l-1.91,10.52c-.53,2.92.26,5.92,2.16,8.2s4.71,3.59,7.68,3.59h118.61c3.31,0,6.4-1.63,8.26-4.37l126.15-185.02h2.12l68.35,182.89c1.46,3.91,5.19,6.5,9.37,6.5h110c4.83,0,8.97-3.46,9.84-8.21l1.91-10.52c.39-2.17.06-4.4-.94-6.36l-104.14-202.71Z"/>
  <path class="cls-1" d="M1163.94,159.74h-103.3c-4.86,0-9.02,3.49-9.85,8.28l-78.43,449.55c-.51,2.91.3,5.89,2.2,8.15,1.9,2.26,4.7,3.57,7.65,3.57h102.35c4.85,0,9-3.48,9.85-8.26l79.39-449.55c.51-2.91-.29-5.9-2.19-8.17-1.9-2.26-4.7-3.57-7.66-3.57Z"/>
  <path class="cls-1" d="M1205.1,3.6c-1.9-2.28-4.72-3.6-7.68-3.6h-111.91c-4.83,0-8.96,3.45-9.83,8.19l-15.3,83.22c-.54,2.92.25,5.93,2.15,8.21s4.72,3.6,7.68,3.6h111.91c4.83,0,8.96-3.45,9.83-8.19l15.3-83.22c.54-2.92-.25-5.93-2.15-8.21Z"/>
  <path class="cls-1" d="M1690.01,163.31c-1.9-2.26-4.7-3.57-7.66-3.57h-103.3c-4.86,0-9.02,3.49-9.85,8.28l-14.52,83.19c-18.99-67.52-67.93-103.74-141.1-102.95-.58,0-1.15,0-1.73,0-51.29,0-96.97,20.77-132.21,60.13-35.77,39.95-60.31,97.17-72.94,170.05-17.45,98.86-6.98,174.59,30.28,219,24.66,29.4,59.62,44.3,103.91,44.3s80.97-14.3,114.63-42.51c17.41-14.59,33.28-32.95,47.09-54.33l-12.79,72.67c-.51,2.91.29,5.9,2.19,8.16,1.9,2.26,4.7,3.57,7.66,3.57h103.3c4.85,0,9-3.48,9.85-8.26l79.39-449.55c.51-2.91-.29-5.9-2.19-8.17ZM1401.14,529.9c-29.61,0-50.44-7.7-63.67-23.53-18.1-21.67-22.33-59.99-12.56-113.99,7.73-45.01,21.91-78.71,42.14-100.17,19.78-20.98,45.64-31.17,79.05-31.17,29.65,0,53.47,9.31,68.9,26.94,16.75,19.14,23.25,47.16,18.78,81.04l-6.64,35.12c-.01.07-.03.14-.04.21l-3.76,22.54c-16.26,63.55-63.06,103.01-122.2,103.01Z"/>
</svg>

